<?xml version="1.0" encoding="utf-8"?>
<!-- Generator: Adobe Illustrator 20.1.0, SVG Export Plug-In . SVG Version: 6.00 Build 0)  -->
<svg version="1.1" id="Layer_1" xmlns="http://www.w3.org/2000/svg" xmlns:xlink="http://www.w3.org/1999/xlink" x="0px" y="0px"
	 viewBox="0 0 906.9 201.9" style="enable-background:new 0 0 906.9 201.9;" xml:space="preserve">
<style type="text/css">
	.st0{fill:#81C342;}
	.st1{fill:#FFFFFF;}
</style>
<rect x="1" class="st0" width="905.9" height="201.9"/>
<g>
	<path class="st1" d="M73.9,73.7H101v3.1c-1.2,0.6-2.4,1.1-3.9,1.5c-1.4,0.4-2.8,0.7-4.1,0.9v47h16l5.6-14.8h3.4
		c0.2,1.3,0.4,2.8,0.6,4.5c0.2,1.7,0.3,3.5,0.5,5.4c0.1,1.9,0.2,3.7,0.2,5.5c0.1,1.8,0.1,3.4,0,4.8H73.9v-3.1
		c1.3-0.7,2.5-1.2,3.6-1.6c1.1-0.4,2.2-0.7,3.2-0.8V79.2c-2.7-0.4-5-1.2-6.8-2.4V73.7z"/>
	<path class="st1" d="M145.9,131.7h-22.9v-3.1c0.8-0.4,1.7-0.8,2.6-1.1c0.9-0.3,1.8-0.6,2.9-0.9V96l-5.5-0.7v-3.1
		c0.8-0.3,1.9-0.7,3.1-1c1.2-0.3,2.6-0.6,3.9-0.9c1.4-0.3,2.7-0.5,4.1-0.7c1.3-0.2,2.5-0.3,3.5-0.5h2.8v37.3c1.1,0.3,2.1,0.6,3,0.9
		c0.9,0.3,1.7,0.7,2.5,1.1V131.7z M127.3,76.7c0-1.9,0.7-3.4,2-4.6c1.3-1.1,3-1.7,5.1-1.7s3.8,0.6,5.1,1.7c1.3,1.1,2,2.6,2,4.6
		c0,1.9-0.7,3.4-2,4.5c-1.3,1.1-3,1.7-5.1,1.7s-3.8-0.6-5.1-1.7C127.9,80,127.3,78.5,127.3,76.7z"/>
	<path class="st1" d="M174.6,69.4c2.3,0,4.3,0.2,6.1,0.6c1.8,0.4,3.2,0.8,4.1,1.2c-0.2,1.8-0.5,3.7-1.1,5.6c-0.6,1.9-1,3.5-1.5,4.8
		h-2.8l-3.6-7.9c-1.4,0-2.6,0.2-3.6,0.5c-1,0.3-1.7,0.9-2.3,1.8c-0.6,0.9-1,2.1-1.3,3.8c-0.3,1.6-0.4,3.7-0.4,6.3v4.1h8.8v5.4h-8.8
		v30.9c2.9,0.3,5.5,1,8,2v3.1h-25.3v-3.1c1.7-1,3.5-1.7,5.5-2V95.6h-6.3v-3.3c1.9-1.2,4-2.2,6.3-2.8v-2.9c0-3.4,0.5-6.3,1.4-8.5
		c1-2.2,2.3-4,3.9-5.3c1.7-1.3,3.6-2.2,5.8-2.7C169.6,69.6,172,69.4,174.6,69.4z"/>
	<path class="st1" d="M219,124.7c-0.4,0.9-1.1,1.9-2.1,2.9c-1,1-2.2,1.8-3.6,2.6c-1.4,0.7-3,1.4-4.9,1.8c-1.9,0.5-3.9,0.7-6,0.7
		c-3.4,0-6.5-0.5-9.1-1.5c-2.7-1-4.9-2.5-6.6-4.4c-1.8-1.9-3.1-4.2-4-6.8c-0.9-2.7-1.4-5.6-1.4-8.9c0-7.1,1.8-12.5,5.5-16.2
		c3.7-3.7,8.8-5.6,15.4-5.6c2.8,0,5.5,0.4,7.9,1.2c2.5,0.8,4.5,2,6.1,3.8c1.6,1.8,2.8,4.1,3.4,7c0.6,2.9,0.6,6.4-0.1,10.5h-25.4
		c0.1,4.4,1.2,7.8,3.4,10.4c2.2,2.6,5.4,3.9,9.6,3.9c1.8,0,3.7-0.3,5.7-0.8c2-0.6,3.5-1.3,4.6-2.2L219,124.7z M201.9,94
		c-1.1,0-2.1,0.2-2.9,0.6c-0.9,0.4-1.6,1.1-2.2,2.1c-0.6,1-1.1,2.4-1.5,4.1c-0.4,1.7-0.7,3.9-0.8,6.6h13.3c0.4-4.3,0.1-7.6-0.7-9.9
		C206.1,95.1,204.4,94,201.9,94z"/>
	<path class="st1" d="M227.7,142.5c1.1-0.3,2.1-0.8,3-1.5c0.9-0.7,1.6-1.4,2.3-2.2c0.6-0.8,1.1-1.7,1.4-2.6c0.3-0.9,0.5-1.9,0.4-2.7
		c-0.8-1-1.7-1.8-2.8-2.4c-1.1-0.6-2.2-1.1-3.4-1.5c-0.3-1.2-0.3-2.3-0.1-3.5c0.2-1.2,0.6-2.2,1.1-3.2c0.6-1,1.2-1.8,1.9-2.5
		c0.7-0.7,1.5-1.1,2.4-1.3c1.2,0.1,2.3,0.3,3.4,0.8c1.1,0.5,2.1,1.1,3,2c0.9,0.9,1.6,1.9,2.1,3.3c0.5,1.3,0.8,2.9,0.8,4.6
		c0,1.7-0.3,3.4-1,5.2c-0.7,1.8-1.6,3.4-2.8,4.9c-1.2,1.5-2.6,2.8-4.3,4c-1.7,1.1-3.5,1.9-5.5,2.4L227.7,142.5z"/>
	<path class="st1" d="M271.3,102.7c0-4.3,0.6-8.3,1.8-12c1.2-3.7,3-6.8,5.4-9.5c2.4-2.7,5.3-4.8,8.8-6.3c3.5-1.5,7.5-2.2,12-2.2
		s8.5,0.7,12,2.2c3.5,1.5,6.4,3.6,8.7,6.3c2.3,2.7,4.1,5.9,5.3,9.5c1.2,3.7,1.8,7.7,1.8,12c0,4.3-0.6,8.3-1.8,12
		c-1.2,3.7-3,6.8-5.3,9.5c-2.3,2.7-5.3,4.8-8.7,6.3c-3.5,1.5-7.5,2.2-12,2.2s-8.5-0.7-12-2.2c-3.5-1.5-6.4-3.6-8.8-6.3
		c-2.4-2.7-4.2-5.9-5.4-9.5C271.9,111,271.3,107,271.3,102.7z M332.2,140.9c-1,1-2.1,2.1-3.2,3c-1.1,1-2.3,1.8-3.6,2.6
		c-1.2,0.8-2.6,1.4-3.9,1.8c-1.4,0.4-2.8,0.7-4.3,0.7c-2.5,0-5.1-0.5-7.7-1.4c-2.6-0.9-5.2-2-8-3.1c-2.8-1.2-5.7-2.3-8.8-3.4
		c-3.1-1.1-6.4-1.9-10-2.3l2.1-3.6c2.7-0.5,5.3-0.6,7.8-0.4c2.6,0.2,5.1,0.7,7.6,1.2c2.5,0.6,5,1.2,7.5,1.9c2.5,0.7,5,1.3,7.6,1.7
		c2.5,0.4,5.1,0.6,7.8,0.6c2.7,0,5.4-0.5,8.2-1.4L332.2,140.9z M285.4,102.7c0,3.5,0.3,6.8,0.8,9.8c0.6,3,1.4,5.6,2.6,7.8
		c1.2,2.2,2.7,3.9,4.6,5.1c1.9,1.2,4.1,1.9,6.7,1.9c2.4,0,4.4-0.6,6-1.9c1.7-1.2,3-3,4.1-5.1c1-2.2,1.8-4.8,2.3-7.8
		c0.5-3,0.7-6.3,0.7-9.8c0-3.5-0.3-6.8-0.8-9.8c-0.5-3-1.4-5.6-2.5-7.8c-1.1-2.2-2.6-3.9-4.5-5.1c-1.9-1.2-4.1-1.9-6.7-1.9
		c-2.5,0-4.7,0.6-6.4,1.9c-1.7,1.2-3.1,3-4.1,5.1c-1,2.2-1.7,4.8-2.2,7.8C285.6,95.9,285.4,99.1,285.4,102.7z"/>
	<path class="st1" d="M336.4,115.2c0-3.5,0.1-6.7,0.2-9.7c0.2-3,0.2-6.1,0.2-9.5l-5.5-0.7v-3.1c0.9-0.3,2-0.7,3.3-1
		c1.3-0.3,2.6-0.6,4-0.9c1.4-0.3,2.7-0.5,4-0.7c1.3-0.2,2.4-0.3,3.3-0.5h2.8c0,4.1-0.1,8.2-0.2,12.2c-0.2,4-0.2,7.9-0.2,11.8
		c0,4.5,0.5,7.8,1.4,9.8c0.9,2,2.6,3,5.1,3c1.7,0,3.3-0.6,4.8-1.9c1.5-1.3,2.7-3.4,3.6-6.3V96l-5.4-0.7v-3.1c0.8-0.3,1.9-0.7,3.1-1
		c1.2-0.3,2.5-0.6,3.9-0.9c1.4-0.3,2.7-0.5,4-0.7c1.3-0.2,2.5-0.3,3.5-0.5h2.8v36.5l5.5,0.7v2.9c-0.8,0.3-1.7,0.7-2.9,1
		c-1.2,0.3-2.4,0.7-3.6,1s-2.5,0.6-3.8,0.7c-1.2,0.2-2.4,0.3-3.4,0.5h-2.8l-0.6-9.9h-0.3c-0.3,1.2-0.8,2.3-1.5,3.5
		c-0.7,1.2-1.6,2.3-2.8,3.2c-1.1,1-2.5,1.8-4,2.4c-1.5,0.6-3.3,0.9-5.1,0.9c-2.1,0-4-0.3-5.6-0.8c-1.6-0.5-3-1.5-4.2-2.8
		c-1.2-1.3-2-3.1-2.6-5.4C336.7,121.5,336.4,118.6,336.4,115.2z"/>
	<path class="st1" d="M421,119.6c0,1.2,0,2.3,0,3.1c0,0.9,0.1,1.8,0.2,2.8l5.7,0.8v2.9c-0.7,0.3-1.6,0.7-2.7,1
		c-1.1,0.3-2.3,0.7-3.6,1c-1.2,0.3-2.5,0.6-3.7,0.7c-1.2,0.2-2.3,0.3-3.2,0.5H411c-0.6-1.3-0.9-2.5-1-3.8c-0.1-1.3-0.2-2.8-0.2-4.6
		h-0.4c-0.3,1.1-0.7,2.2-1.4,3.2c-0.7,1-1.5,1.9-2.5,2.7c-1,0.8-2.2,1.4-3.6,1.9c-1.4,0.5-2.9,0.7-4.6,0.7c-1.8,0-3.5-0.3-5.1-0.8
		c-1.5-0.6-2.9-1.3-4.1-2.3c-1.2-1-2.1-2.2-2.7-3.6c-0.7-1.4-1-3-1-4.8c0-2.5,0.5-4.5,1.4-6.1c0.9-1.6,2.4-2.9,4.4-3.9
		c2-1,4.6-1.8,7.8-2.3c3.2-0.5,7-0.9,11.6-1.1c0.4-4.7,0.2-8.2-0.6-10.4s-2.6-3.3-5.4-3.3c-1.7,0-3.3,0.3-4.7,0.8l-3.9,9.9h-3.6
		c-0.4-0.7-0.9-1.4-1.3-2.3c-0.4-0.9-0.8-1.8-1.2-2.7c-0.4-1-0.7-1.9-0.9-2.9s-0.4-2-0.5-2.9c2.1-1.4,4.8-2.6,8.1-3.4
		c3.3-0.8,6.8-1.2,10.5-1.2c3.1,0,5.7,0.3,7.7,1c2,0.7,3.5,1.6,4.7,2.8c1.1,1.2,1.9,2.6,2.4,4.2c0.4,1.6,0.7,3.3,0.7,5.1
		c0,3.3-0.1,6.3-0.2,9C421,114.1,421,116.8,421,119.6z M402.3,126c1.2,0,2.2-0.2,3-0.7c0.8-0.4,1.5-1,2.1-1.6c0.6-0.6,1-1.3,1.3-2
		c0.3-0.7,0.5-1.4,0.7-1.9v-8.3c-2.6,0.1-4.7,0.2-6.4,0.5c-1.7,0.3-3,0.7-3.9,1.4c-0.9,0.6-1.6,1.4-1.9,2.4c-0.4,1-0.5,2.1-0.5,3.5
		c0,2.1,0.5,3.7,1.5,4.9C399.2,125.4,400.6,126,402.3,126z"/>
	<path class="st1" d="M453.6,131.7h-22.9v-3.1c1.8-0.9,3.6-1.6,5.5-2V76.2l-6.3-0.7v-3.1c0.7-0.3,1.7-0.7,3-1
		c1.3-0.3,2.6-0.6,4.1-0.9c1.5-0.2,2.9-0.5,4.4-0.7c1.5-0.2,2.8-0.3,3.9-0.5h2.8v57.1c1.8,0.4,3.6,1.1,5.5,2V131.7z"/>
	<path class="st1" d="M481.1,131.7h-22.9v-3.1c0.8-0.4,1.7-0.8,2.6-1.1c0.9-0.3,1.8-0.6,2.9-0.9V96l-5.5-0.7v-3.1
		c0.8-0.3,1.9-0.7,3.1-1c1.2-0.3,2.6-0.6,3.9-0.9c1.4-0.3,2.7-0.5,4.1-0.7c1.3-0.2,2.5-0.3,3.5-0.5h2.8v37.3c1.1,0.3,2.1,0.6,3,0.9
		c0.9,0.3,1.7,0.7,2.5,1.1V131.7z M462.5,76.7c0-1.9,0.7-3.4,2-4.6c1.3-1.1,3-1.7,5.1-1.7s3.8,0.6,5.1,1.7c1.3,1.1,2,2.6,2,4.6
		c0,1.9-0.7,3.4-2,4.5c-1.3,1.1-3,1.7-5.1,1.7s-3.8-0.6-5.1-1.7C463.1,80,462.5,78.5,462.5,76.7z"/>
	<path class="st1" d="M483.8,92.3c2.1-1.4,4.3-2.3,6.6-2.9v-6.7c0.4-0.3,1.5-0.8,3.3-1.4c1.7-0.6,3.7-1.1,5.8-1.5h2.8v10.5h10.9v5.4
		h-10.9V117c0,3.4,0.4,5.8,1.3,7.1c0.9,1.3,2.3,2,4.3,2c1,0,2.1-0.1,3.4-0.2c1.2-0.1,2.4-0.4,3.4-0.8l0.6,2.7
		c-0.5,0.5-1.2,1-2.2,1.6c-1,0.6-2.1,1.1-3.3,1.6c-1.2,0.5-2.6,0.9-4.1,1.2c-1.5,0.3-3,0.5-4.6,0.5c-3.6,0-6.3-0.9-8-2.8
		c-1.8-1.9-2.7-4.9-2.7-9.1V95.6h-6.6V92.3z"/>
	<path class="st1" d="M519.4,95.4c-0.8-0.2-1.6-0.5-2.3-0.8c-0.7-0.3-1.4-0.7-2.1-1.2v-3.1h21.8v3.1c-1.2,0.8-2.7,1.5-4.7,2.1
		l8.4,20.9l1.4,5.3h0.2l1.3-5.4l6.5-20.8c-1.7-0.3-3.2-1-4.6-2v-3.1h16v3.1c-1.2,0.8-2.7,1.4-4.7,2L543,131.7
		c-1.3,3.5-2.7,6.4-4,8.7s-2.7,4-4,5.3c-1.3,1.3-2.7,2.2-4,2.8c-1.3,0.5-2.7,0.9-4,1c-0.6-0.5-1-1.1-1.5-1.9
		c-0.4-0.7-0.8-1.5-1.2-2.4c-0.3-0.9-0.6-1.7-0.8-2.6c-0.2-0.9-0.4-1.7-0.4-2.5l1.1-2h10.1c0.5-0.8,0.9-1.6,1.3-2.5
		c0.4-0.9,0.8-2.2,1.3-4L519.4,95.4z"/>
	<path class="st1" d="M584.9,110.9c0-3.4,0.5-6.4,1.5-9.1c1-2.7,2.5-5,4.4-6.8c1.9-1.9,4.2-3.3,6.9-4.3c2.7-1,5.8-1.5,9.2-1.5
		c3.9,0,7.2,0.5,10,1.6c2.8,1.1,5.1,2.6,6.9,4.5c1.8,1.9,3.1,4.2,3.9,6.9c0.8,2.7,1.2,5.6,1.2,8.7c0,3.4-0.5,6.4-1.5,9.1
		c-1,2.7-2.4,5-4.3,6.8c-1.9,1.9-4.2,3.3-7,4.3c-2.7,1-5.8,1.5-9.2,1.5c-3.8,0-7-0.5-9.8-1.6c-2.8-1.1-5.1-2.6-6.9-4.5
		c-1.8-1.9-3.2-4.2-4.1-6.9C585.3,117,584.9,114.1,584.9,110.9z M597.7,110.9c0,2.5,0.1,4.8,0.5,6.8c0.3,2.1,0.8,3.8,1.6,5.3
		c0.8,1.4,1.8,2.6,3.1,3.4c1.3,0.8,3,1.2,5.1,1.2c1.2,0,2.3-0.3,3.3-0.9c1-0.6,1.9-1.5,2.6-2.8c0.7-1.3,1.3-3,1.6-5.1
		c0.4-2.1,0.5-4.7,0.5-7.8c0-2.5-0.2-4.8-0.5-6.9c-0.3-2-0.8-3.8-1.6-5.2c-0.7-1.4-1.8-2.6-3-3.4c-1.3-0.8-2.9-1.2-4.8-1.2
		c-1.4,0-2.7,0.3-3.7,0.9c-1,0.6-1.9,1.5-2.6,2.8c-0.7,1.3-1.3,3-1.6,5.1C597.9,105.2,597.7,107.9,597.7,110.9z"/>
	<path class="st1" d="M658.1,69.4c2.3,0,4.3,0.2,6.1,0.6c1.8,0.4,3.2,0.8,4.1,1.2c-0.2,1.8-0.5,3.7-1.1,5.6c-0.6,1.9-1,3.5-1.5,4.8
		h-2.8l-3.6-7.9c-1.4,0-2.6,0.2-3.6,0.5c-1,0.3-1.7,0.9-2.3,1.8c-0.6,0.9-1,2.1-1.3,3.8c-0.3,1.6-0.4,3.7-0.4,6.3v4.1h8.8v5.4h-8.8
		v30.9c2.9,0.3,5.5,1,8,2v3.1h-25.3v-3.1c1.7-1,3.5-1.7,5.5-2V95.6h-6.3v-3.3c1.9-1.2,4-2.2,6.3-2.8v-2.9c0-3.4,0.5-6.3,1.4-8.5
		c1-2.2,2.3-4,3.9-5.3c1.7-1.3,3.6-2.2,5.8-2.7C653.2,69.6,655.6,69.4,658.1,69.4z"/>
	<path class="st1" d="M686.3,73.7h27.2v3.1c-1.2,0.6-2.4,1.1-3.9,1.5c-1.4,0.4-2.8,0.7-4.1,0.9v47h16l5.6-14.8h3.4
		c0.2,1.3,0.4,2.8,0.6,4.5c0.2,1.7,0.3,3.5,0.5,5.4c0.1,1.9,0.2,3.7,0.2,5.5c0.1,1.8,0.1,3.4,0,4.8h-45.5v-3.1
		c1.3-0.7,2.5-1.2,3.6-1.6c1.1-0.4,2.2-0.7,3.2-0.8V79.2c-2.7-0.4-5-1.2-6.8-2.4V73.7z"/>
	<path class="st1" d="M758.4,131.7h-22.9v-3.1c0.8-0.4,1.7-0.8,2.6-1.1c0.9-0.3,1.8-0.6,2.9-0.9V96l-5.5-0.7v-3.1
		c0.8-0.3,1.9-0.7,3.1-1c1.2-0.3,2.6-0.6,3.9-0.9c1.4-0.3,2.7-0.5,4.1-0.7c1.3-0.2,2.5-0.3,3.5-0.5h2.8v37.3c1.1,0.3,2.1,0.6,3,0.9
		c0.9,0.3,1.7,0.7,2.5,1.1V131.7z M739.8,76.7c0-1.9,0.7-3.4,2-4.6c1.3-1.1,3-1.7,5.1-1.7s3.8,0.6,5.1,1.7c1.3,1.1,2,2.6,2,4.6
		c0,1.9-0.7,3.4-2,4.5c-1.3,1.1-3,1.7-5.1,1.7s-3.8-0.6-5.1-1.7C740.4,80,739.8,78.5,739.8,76.7z"/>
	<path class="st1" d="M787.1,69.4c2.3,0,4.3,0.2,6.1,0.6c1.8,0.4,3.2,0.8,4.1,1.2c-0.2,1.8-0.5,3.7-1.1,5.6c-0.6,1.9-1,3.5-1.5,4.8
		h-2.8l-3.6-7.9c-1.4,0-2.6,0.2-3.6,0.5c-1,0.3-1.7,0.9-2.3,1.8c-0.6,0.9-1,2.1-1.3,3.8c-0.3,1.6-0.4,3.7-0.4,6.3v4.1h8.8v5.4h-8.8
		v30.9c2.9,0.3,5.5,1,8,2v3.1h-25.3v-3.1c1.7-1,3.5-1.7,5.5-2V95.6h-6.3v-3.3c1.9-1.2,4-2.2,6.3-2.8v-2.9c0-3.4,0.5-6.3,1.4-8.5
		c1-2.2,2.3-4,3.9-5.3c1.7-1.3,3.6-2.2,5.8-2.7C782.1,69.6,784.5,69.4,787.1,69.4z"/>
	<path class="st1" d="M831.5,124.7c-0.4,0.9-1.1,1.9-2.1,2.9c-1,1-2.2,1.8-3.6,2.6c-1.4,0.7-3,1.4-4.9,1.8c-1.9,0.5-3.9,0.7-6,0.7
		c-3.4,0-6.5-0.5-9.1-1.5c-2.7-1-4.9-2.5-6.6-4.4c-1.8-1.9-3.1-4.2-4-6.8c-0.9-2.7-1.4-5.6-1.4-8.9c0-7.1,1.8-12.5,5.5-16.2
		c3.7-3.7,8.8-5.6,15.4-5.6c2.8,0,5.5,0.4,7.9,1.2c2.5,0.8,4.5,2,6.1,3.8s2.8,4.1,3.4,7c0.6,2.9,0.6,6.4-0.1,10.5h-25.4
		c0.1,4.4,1.2,7.8,3.4,10.4c2.2,2.6,5.4,3.9,9.6,3.9c1.8,0,3.7-0.3,5.7-0.8c2-0.6,3.5-1.3,4.6-2.2L831.5,124.7z M814.4,94
		c-1.1,0-2.1,0.2-2.9,0.6c-0.9,0.4-1.6,1.1-2.2,2.1c-0.6,1-1.1,2.4-1.5,4.1c-0.4,1.7-0.7,3.9-0.8,6.6h13.3c0.4-4.3,0.1-7.6-0.7-9.9
		C818.6,95.1,816.9,94,814.4,94z"/>
</g>
</svg>
